<svg xmlns="http://www.w3.org/2000/svg"  viewBox="0 0 24 24" width="24px" height="24px"><path d="M 12 2 C 6.4889941 2 2 6.4889982 2 12 C 2 17.511002 6.4889941 22 12 22 C 17.511006 22 22 17.511002 22 12 C 22 6.4889982 17.511006 2 12 2 z M 12 4 C 16.430126 4 20 7.5698765 20 12 C 20 16.430123 16.430126 20 12 20 C 8.1835515 20 5.0123074 17.347589 4.2050781 13.78125 L 7.0097656 15.289062 C 7.0697656 14.579062 7.4309375 13.949063 7.9609375 13.539062 L 4.0292969 11.419922 C 4.3258501 7.2633388 7.7656744 4 12 4 z M 7.9609375 13.539062 L 9.9707031 14.619141 C 10.460703 14.879141 10.640859 15.490703 10.380859 15.970703 C 10.200859 16.310703 9.85 16.5 9.5 16.5 C 9.34 16.5 9.1792969 16.460859 9.0292969 16.380859 L 7.0097656 15.289062 C 6.9997656 15.359063 7 15.43 7 15.5 C 7 16.88 8.12 18 9.5 18 C 10.88 18 12 16.88 12 15.5 L 12 15.490234 C 12.6695 15.008521 13.433016 14.472069 14.138672 13.962891 C 14.259505 13.974336 14.375046 14 14.5 14 C 15.583333 14 16.523108 13.557744 17.123047 12.882812 C 17.722986 12.207882 18 11.347222 18 10.5 C 18 9.6527779 17.722986 8.7921194 17.123047 8.1171875 C 16.523108 7.4422556 15.583333 7 14.5 7 C 13.416667 7 12.476892 7.4422556 11.876953 8.1171875 C 11.277014 8.7921194 11 9.6527779 11 10.5 C 11 10.623836 11.01927 10.747305 11.03125 10.871094 C 10.523993 11.574361 9.9893981 12.333392 9.5097656 13 L 9.5 13 C 8.92 13 8.3809375 13.199062 7.9609375 13.539062 z M 14.5 9 C 15.083333 9 15.393559 9.1827444 15.626953 9.4453125 C 15.860347 9.7078806 16 10.097222 16 10.5 C 16 10.902778 15.860347 11.292119 15.626953 11.554688 C 15.393559 11.817255 15.083333 12 14.5 12 C 13.916667 12 13.606441 11.817256 13.373047 11.554688 C 13.139653 11.292118 13 10.902778 13 10.5 C 13 10.097222 13.139653 9.7078806 13.373047 9.4453125 C 13.606441 9.1827444 13.916667 9 14.5 9 z"/></svg>